<?xml version="1.0" encoding="UTF-8" standalone="no"?>
<!-- Created with Inkscape (http://www.inkscape.org/) -->

<svg
   xmlns:dc="http://purl.org/dc/elements/1.1/"
   xmlns:cc="http://creativecommons.org/ns#"
   xmlns:rdf="http://www.w3.org/1999/02/22-rdf-syntax-ns#"
   xmlns:svg="http://www.w3.org/2000/svg"
   xmlns="http://www.w3.org/2000/svg"
   xmlns:sodipodi="http://sodipodi.sourceforge.net/DTD/sodipodi-0.dtd"
   xmlns:inkscape="http://www.inkscape.org/namespaces/inkscape"
   width="22.5mm"
   height="8mm"
   viewBox="0 0 22.5 8"
   version="1.1"
   id="svg38"
   inkscape:version="0.92.2 (5c3e80d, 2017-08-06)"
   sodipodi:docname="honlSoft_white.svg">
  <defs
     id="defs32">
    <inkscape:path-effect
       effect="bspline"
       id="path-effect3832"
       is_visible="true"
       weight="33.333333"
       steps="2"
       helper_size="0"
       apply_no_weight="true"
       apply_with_weight="true"
       only_selected="false" />
    <inkscape:path-effect
       effect="bspline"
       id="path-effect3801"
       is_visible="true"
       weight="33.333333"
       steps="2"
       helper_size="0"
       apply_no_weight="true"
       apply_with_weight="true"
       only_selected="false" />
    <inkscape:path-effect
       effect="bspline"
       id="path-effect3759"
       is_visible="true"
       weight="33.333333"
       steps="2"
       helper_size="0"
       apply_no_weight="true"
       apply_with_weight="true"
       only_selected="false" />
    <inkscape:path-effect
       effect="bspline"
       id="path-effect3737"
       is_visible="true"
       weight="33.333333"
       steps="2"
       helper_size="0"
       apply_no_weight="true"
       apply_with_weight="true"
       only_selected="false" />
    <inkscape:path-effect
       effect="bspline"
       id="path-effect3733"
       is_visible="true"
       weight="33.333333"
       steps="2"
       helper_size="0"
       apply_no_weight="true"
       apply_with_weight="true"
       only_selected="false" />
    <inkscape:path-effect
       effect="bspline"
       id="path-effect3737-4"
       is_visible="true"
       weight="33.333333"
       steps="2"
       helper_size="0"
       apply_no_weight="true"
       apply_with_weight="true"
       only_selected="false" />
    <inkscape:path-effect
       effect="bspline"
       id="path-effect3737-0"
       is_visible="true"
       weight="33.333333"
       steps="2"
       helper_size="0"
       apply_no_weight="true"
       apply_with_weight="true"
       only_selected="false" />
    <inkscape:path-effect
       effect="bspline"
       id="path-effect3737-4-1"
       is_visible="true"
       weight="33.333333"
       steps="2"
       helper_size="0"
       apply_no_weight="true"
       apply_with_weight="true"
       only_selected="false" />
    <inkscape:path-effect
       effect="bspline"
       id="path-effect3737-4-1-3"
       is_visible="true"
       weight="33.333333"
       steps="2"
       helper_size="0"
       apply_no_weight="true"
       apply_with_weight="true"
       only_selected="false" />
  </defs>
  <sodipodi:namedview
     id="base"
     pagecolor="#ffffff"
     bordercolor="#666666"
     borderopacity="1.0"
     inkscape:pageopacity="0.0"
     inkscape:pageshadow="2"
     inkscape:zoom="3.3748437"
     inkscape:cx="32.076445"
     inkscape:cy="39.880157"
     inkscape:document-units="mm"
     inkscape:current-layer="layer1"
     showgrid="true"
     objecttolerance="10000"
     inkscape:window-width="1600"
     inkscape:window-height="1137"
     inkscape:window-x="1592"
     inkscape:window-y="-8"
     inkscape:window-maximized="1"
     inkscape:pagecheckerboard="true">
    <inkscape:grid
       type="xygrid"
       id="grid40" />
  </sodipodi:namedview>
  <metadata
     id="metadata35">
    <rdf:RDF>
      <cc:Work
         rdf:about="">
        <dc:format>image/svg+xml</dc:format>
        <dc:type
           rdf:resource="http://purl.org/dc/dcmitype/StillImage" />
        <dc:title></dc:title>
      </cc:Work>
    </rdf:RDF>
  </metadata>
  <g
     inkscape:label="Layer 1"
     inkscape:groupmode="layer"
     id="layer1"
     transform="translate(0,-289)">
    <g
       aria-label="hS"
       style="font-style:normal;font-variant:normal;font-weight:normal;font-stretch:normal;font-size:7.05555534px;line-height:1.25;font-family:'Eras Bold ITC';-inkscape-font-specification:'Eras Bold ITC';font-variant-ligatures:normal;font-variant-caps:normal;font-variant-numeric:normal;font-feature-settings:normal;text-align:start;letter-spacing:0px;word-spacing:0px;writing-mode:lr-tb;text-anchor:start;fill:#ffffff;fill-opacity:1;stroke:none;stroke-width:0.26458332"
       id="text3890">
      <path
         d="m 6.108704,295.43314 q 0.055122,-0.51332 0.079237,-0.84405 0.048231,-0.69247 0.099908,-1.60886 0.031006,-0.60634 0.044786,-1.16444 0.017225,-0.55811 0.017225,-1.08521 0.4375271,0.007 0.7131347,0.007 0.3720704,0 0.7027995,-0.007 l -0.072347,0.83371 q -0.017225,0.20671 -0.055121,0.83716 0.1136881,-0.14469 0.1860351,-0.21359 0.072347,-0.0724 0.1584744,-0.13092 0.089573,-0.062 0.179145,-0.10335 0.093018,-0.0413 0.2101508,-0.0724 0.1205783,-0.031 0.2618272,-0.0482 0.1446941,-0.0172 0.2962782,-0.0172 0.2928332,0 0.5649957,0.0654 0.2756076,0.0655 0.468533,0.23082 0.1929254,0.16192 0.2618274,0.36518 0.0689,0.19982 0.0689,0.44098 0,0.093 -0.0069,0.24804 -0.0034,0.15159 -0.02067,0.38585 l -0.07579,1.161 q -0.01378,0.21704 -0.01722,0.36174 0,0.14124 0,0.35829 -0.3582905,-0.007 -0.6855746,-0.007 -0.3686252,0 -0.7475857,0.007 0.058567,-0.4582 0.1033529,-1.0542 0.044786,-0.59945 0.044786,-0.89228 0,-0.32384 -0.1378038,-0.45476 -0.1343587,-0.13091 -0.3582899,-0.13091 -0.1998156,0 -0.3548449,0.0827 -0.1378038,0.0723 -0.2411566,0.22393 -0.089573,0.12747 -0.1481391,0.36863 -0.068902,0.29283 -0.106798,0.86472 -0.020671,0.31695 -0.041341,0.99219 -0.3479547,-0.007 -0.6511231,-0.007 -0.3066135,0 -0.7406955,0.007 z"
         style="stroke-width:0.26458332"
         id="path3900"
         inkscape:connector-curvature="0" />
      <path
         d="m 10.938728,295.36079 q -0.04479,-0.73381 -0.103353,-1.17478 0.385851,0.17226 0.685574,0.24116 0.303168,0.0654 0.530545,0.0654 0.299723,0 0.475423,-0.0861 0.179145,-0.0896 0.179145,-0.26183 0,-0.0586 -0.01723,-0.11024 -0.01722,-0.0551 -0.06546,-0.12058 -0.04823,-0.0689 -0.137804,-0.14814 l -0.647678,-0.565 q -0.227376,-0.19292 -0.316949,-0.27905 -0.18259,-0.1757 -0.285943,-0.32728 -0.09991,-0.15159 -0.148139,-0.30662 -0.04479,-0.15847 -0.04479,-0.33417 0,-0.21015 0.07235,-0.40997 0.07579,-0.20326 0.223931,-0.37896 0.148139,-0.1757 0.392741,-0.30317 0.244602,-0.12746 0.523654,-0.17225 0.279053,-0.0482 0.575331,-0.0482 0.582221,0 1.267795,0.13436 0.01034,0.23771 0.02412,0.43752 0.01378,0.19637 0.06546,0.69247 -0.316949,-0.12747 -0.578776,-0.1757 -0.261827,-0.0517 -0.451308,-0.0517 -0.268717,0 -0.447862,0.0999 -0.1757,0.0999 -0.1757,0.24805 0,0.0689 0.02756,0.13436 0.02756,0.0654 0.103353,0.15502 0.07579,0.0861 0.199815,0.19293 0.124024,0.10335 0.389296,0.31006 l 0.248047,0.19637 q 0.110243,0.0896 0.237711,0.21704 0.127469,0.12747 0.220487,0.25149 0.09302,0.12403 0.141249,0.22738 0.05168,0.10335 0.07579,0.21015 0.02412,0.10335 0.02412,0.22393 0,0.31006 -0.148139,0.59256 -0.148139,0.27905 -0.420301,0.46164 -0.272163,0.17914 -0.599447,0.25149 -0.323839,0.0724 -0.685574,0.0724 -0.558105,0 -1.409044,-0.16192 z"
         style="stroke-width:0.26458332"
         id="path3902"
         inkscape:connector-curvature="0" />
    </g>
    <g
       aria-label="/&gt;"
       style="font-style:normal;font-variant:normal;font-weight:normal;font-stretch:normal;font-size:7.05555534px;line-height:1.25;font-family:Calibri;-inkscape-font-specification:'Calibri, Normal';font-variant-ligatures:normal;font-variant-caps:normal;font-variant-numeric:normal;font-feature-settings:normal;text-align:start;letter-spacing:0px;word-spacing:0px;writing-mode:lr-tb;text-anchor:start;fill:#ff2a2a;fill-opacity:1;stroke:none;stroke-width:0.26458332"
       id="text3866">
      <path
         d="m 15.810436,296.10715 q -0.01378,0.0448 -0.0379,0.0689 -0.02067,0.0276 -0.05512,0.0413 -0.03445,0.0138 -0.08613,0.0207 -0.04823,0.007 -0.120578,0.007 -0.08613,0 -0.144694,-0.0138 -0.05512,-0.0103 -0.08613,-0.0344 -0.03101,-0.0207 -0.0379,-0.0551 -0.0069,-0.031 0.01378,-0.0758 l 2.084282,-5.71541 q 0.01378,-0.0448 0.03445,-0.0689 0.02412,-0.0276 0.05512,-0.0413 0.03445,-0.0172 0.08613,-0.0207 0.05168,-0.007 0.124024,-0.007 0.08613,0 0.141248,0.0138 0.05512,0.0103 0.08613,0.031 0.03101,0.0207 0.0379,0.0551 0.0069,0.0344 -0.01034,0.0792 z"
         style="fill:#aaeeff;stroke-width:0.26458332"
         id="path3895"
         inkscape:connector-curvature="0" />
      <path
         d="m 21.239906,293.2994 q 0,0.0586 -0.0069,0.1068 -0.0069,0.0448 -0.01722,0.0792 -0.01034,0.0344 -0.02756,0.0551 -0.01723,0.0172 -0.0379,0.0276 l -2.7044,1.36426 q -0.0379,0.0172 -0.06546,0.0207 -0.02756,0 -0.04479,-0.0241 -0.01378,-0.0241 -0.02067,-0.0723 -0.0069,-0.0517 -0.0069,-0.13091 0,-0.0965 0.0034,-0.15503 0.0034,-0.0586 0.01378,-0.093 0.01378,-0.0379 0.0379,-0.0586 0.02412,-0.0207 0.06201,-0.0379 l 2.222087,-1.09209 -2.208306,-1.06454 q -0.04479,-0.0207 -0.07235,-0.0379 -0.02412,-0.0207 -0.0379,-0.0586 -0.01378,-0.0379 -0.01723,-0.0965 -0.0034,-0.062 -0.0034,-0.16192 0,-0.0896 0.0069,-0.13781 0.0069,-0.0517 0.02067,-0.0723 0.01722,-0.0241 0.04479,-0.0207 0.02756,0.003 0.06546,0.0241 l 2.714735,1.3677 q 0.03445,0.0172 0.05512,0.0861 0.02412,0.0655 0.02412,0.18259 z"
         style="fill:#aaeeff;stroke-width:0.26458332"
         id="path3897"
         inkscape:connector-curvature="0" />
    </g>
    <g
       aria-label="&lt;"
       style="font-style:normal;font-variant:normal;font-weight:normal;font-stretch:normal;font-size:7.05555534px;line-height:1.25;font-family:Calibri;-inkscape-font-specification:'Calibri, Normal';font-variant-ligatures:normal;font-variant-caps:normal;font-variant-numeric:normal;font-feature-settings:normal;text-align:start;letter-spacing:0px;word-spacing:0px;writing-mode:lr-tb;text-anchor:start;fill:#ff0000;fill-opacity:1;stroke:none;stroke-width:0.26458332"
       id="text3866-2">
      <path
         d="m 4.0725985,294.53076 q 0,0.0861 -0.00689,0.14125 -0.00689,0.0517 -0.024116,0.0758 -0.017225,0.0207 -0.044786,0.0172 -0.024116,-0.003 -0.062012,-0.0241 l -2.7147351,-1.37115 q -0.034451,-0.0172 -0.055122,-0.0827 -0.020671,-0.0654 -0.020671,-0.18948 0,-0.0551 0.00345,-0.10335 0.00689,-0.0482 0.017225,-0.0792 0.01378,-0.031 0.027561,-0.0517 0.017225,-0.0241 0.037896,-0.031 l 2.7043998,-1.36426 q 0.079237,-0.0379 0.106798,0.003 0.031006,0.0413 0.031006,0.20326 0,0.0999 -0.00689,0.15847 -0.00345,0.0586 -0.017226,0.0965 -0.010335,0.0345 -0.034451,0.0551 -0.020671,0.0172 -0.062012,0.0379 l -2.2186414,1.08521 2.204861,1.06798 q 0.044786,0.0241 0.068902,0.0448 0.027561,0.0172 0.041341,0.0551 0.01378,0.0345 0.017226,0.0965 0.00689,0.0586 0.00689,0.15847 z"
         style="fill:#aaeeff;stroke-width:0.26458332"
         id="path3892"
         inkscape:connector-curvature="0" />
    </g>
  </g>
</svg>
